# xmcd CD database file
#
# Track frame offsets:
#	150
#	39572
#	54983
#	87115
#	101335
#	147254
#	174021
#	194012
#
# Disc length: 2947 seconds
#
# Revision: 0
# Processed by: cddbd v1.5.2PL0 Copyright (c) Steve Scherf et al.
# Submitted via: CDex 1.70beta2
#
DISCID=5f0b8108
DTITLE=Mitchel Forman - Patience
DYEAR=2001
DGENRE=Jazz
TTITLE0=Patience
TTITLE1=Point Of View
TTITLE2=Origin
TTITLE3=Speedy 
TTITLE4=Thin Air
TTITLE5=Reunion
TTITLE6=Ornette
TTITLE7=Waiting For Nina
EXTD=YEAR: 2001
EXTT0=
EXTT1=
EXTT2=
EXTT3=
EXTT4=
EXTT5=
EXTT6=
EXTT7=
PLAYORDER=
